<mxfile host="app.diagrams.net" modified="2024-07-14T12:46:33.263Z" agent="Mozilla/5.0 (Macintosh; Intel Mac OS X 10_15_7) AppleWebKit/605.1.15 (KHTML, like Gecko) Version/17.4.1 Safari/605.1.15" version="24.6.5" etag="vCW2lwF0wZlsfyES0p3M" type="github">
  <diagram name="Seite-1" id="SiebUyngOwS-vKL58rUG">
    <mxGraphModel>
      <root>
        <mxCell id="0" />
        <mxCell id="1" parent="0" />
      </root>
    </mxGraphModel>
  </diagram>
</mxfile>
